<svg width="1072" height="112" viewBox="0 0 1072 112" fill="none" xmlns="http://www.w3.org/2000/svg">
<path d="M40.35 111.5C52.95 111.5 63.3 105.95 69.6 98.45C70.65 97.25 71.4 95.6 71.4 94.4C71.4 91.1 68.85 88.7 65.4 88.7C63.15 88.7 61.8 90.05 60.3 91.4C55.65 96.65 48.75 100.4 40.35 100.4C25.05 100.4 12.9 87.65 12.9 71.75C12.9 55.7 25.05 43.1 40.35 43.1C48.9 43.1 55.65 46.85 60.3 52.1C61.95 53.45 63.15 54.65 65.4 54.65C68.85 54.65 71.4 52.4 71.4 49.1C71.4 47.75 70.65 46.1 69.6 44.9C63.3 37.4 52.8 32 40.35 32C17.85 32 0.75 49.55 0.75 71.75C0.75 93.95 17.85 111.5 40.35 111.5ZM124.303 111.5C146.803 111.5 163.753 93.95 163.753 71.75C163.753 49.55 146.803 32 124.303 32C101.803 32 84.7031 49.55 84.7031 71.75C84.7031 93.95 101.803 111.5 124.303 111.5ZM124.303 100.4C108.853 100.4 96.8531 87.5 96.8531 71.75C96.8531 55.85 108.853 43.1 124.303 43.1C139.753 43.1 151.603 55.85 151.603 71.75C151.603 87.5 139.753 100.4 124.303 100.4ZM181.481 105.05C181.481 108.5 184.031 111.2 187.481 111.2C190.781 111.2 193.481 108.5 193.481 105.05V9.79999C193.481 6.49999 190.781 3.8 187.481 3.8C184.031 3.8 181.481 6.49999 181.481 9.79999V105.05ZM250.608 111.5C263.208 111.5 273.558 105.95 279.858 98.45C280.908 97.25 281.658 95.6 281.658 94.4C281.658 91.1 279.108 88.7 275.658 88.7C273.558 88.7 272.208 89.9 270.558 91.4C265.908 96.65 259.158 100.4 250.608 100.4C235.158 100.4 223.158 87.65 223.158 71.75C223.158 55.7 235.308 43.1 250.608 43.1C255.558 43.1 261.108 44.6 265.008 47.9L241.608 75.5C240.558 76.55 240.258 77.9 240.258 79.25C240.258 82.4 242.658 84.65 245.958 84.65C247.608 84.65 248.958 84.05 250.158 82.7L276.858 50.75C278.358 49.1 278.808 47.75 278.808 46.25C278.808 44.45 277.908 42.8 276.558 41.6C270.708 36.2 261.558 32 250.608 32C228.108 32 211.008 49.55 211.008 71.75C211.008 93.95 228.258 111.5 250.608 111.5ZM334.7 111.5C347.6 111.5 357.95 105.95 363.05 99.8C365 97.55 366.05 95 366.05 92.9C366.05 87.05 361.55 82.85 355.7 82.85C351.5 82.85 349.25 85.4 346.55 87.65C343.85 89.9 339.95 92 334.7 92C324.05 92 315.8 83 315.8 71.75C315.8 60.5 324.05 51.5 334.7 51.5C340.4 51.5 344 53.75 346.7 56C349.4 58.25 351.5 60.5 355.7 60.5C361.55 60.5 366.05 56.45 366.05 50.6C366.05 48.5 365 45.8 363.05 43.55C357.95 37.4 347.3 32 334.7 32C311.45 32 294.65 49.55 294.65 71.75C294.65 93.95 311.45 111.5 334.7 111.5ZM414.921 111.5C423.171 111.5 430.821 108.8 436.971 104C438.321 108.35 442.371 111.5 447.171 111.5C453.021 111.5 457.671 106.85 457.671 101V42.5C457.671 36.65 453.021 32 447.171 32C442.371 32 438.321 35.15 436.971 39.5C430.821 34.85 423.171 32 414.921 32C393.771 32 377.871 49.55 377.871 71.75C377.871 93.95 393.771 111.5 414.921 111.5ZM417.921 92C407.271 92 399.021 83.45 399.021 71.75C399.021 60.2 407.271 51.5 417.921 51.5C428.421 51.5 436.671 60.2 436.671 71.75C436.671 83.45 428.421 92 417.921 92ZM513.446 111.5C526.346 111.5 536.696 105.95 541.796 99.8C543.746 97.55 544.796 95 544.796 92.9C544.796 87.05 540.296 82.85 534.446 82.85C530.246 82.85 527.996 85.4 525.296 87.65C522.596 89.9 518.696 92 513.446 92C502.796 92 494.546 83 494.546 71.75C494.546 60.5 502.796 51.5 513.446 51.5C519.146 51.5 522.746 53.75 525.446 56C528.146 58.25 530.246 60.5 534.446 60.5C540.296 60.5 544.796 56.45 544.796 50.6C544.796 48.5 543.746 45.8 541.796 43.55C536.696 37.4 526.046 32 513.446 32C490.196 32 473.396 49.55 473.396 71.75C473.396 93.95 490.196 111.5 513.446 111.5ZM596.667 111.5C609.567 111.5 619.917 105.95 625.017 99.8C626.967 97.55 628.017 95 628.017 92.9C628.017 87.05 623.517 82.85 617.667 82.85C613.467 82.85 611.217 85.4 608.517 87.65C605.817 89.9 601.917 92 596.667 92C586.017 92 577.767 83 577.767 71.75C577.767 60.5 586.017 51.5 596.667 51.5C602.367 51.5 605.967 53.75 608.667 56C611.367 58.25 613.467 60.5 617.667 60.5C623.517 60.5 628.017 56.45 628.017 50.6C628.017 48.5 626.967 45.8 625.017 43.55C619.917 37.4 609.267 32 596.667 32C573.417 32 556.617 49.55 556.617 71.75C556.617 93.95 573.417 111.5 596.667 111.5ZM676.888 111.5C685.138 111.5 692.788 108.8 698.938 104C700.288 108.35 704.338 111.5 709.138 111.5C714.988 111.5 719.638 106.85 719.638 101V42.5C719.638 36.65 714.988 32 709.138 32C704.338 32 700.288 35.15 698.938 39.5C692.788 34.85 685.138 32 676.888 32C655.738 32 639.838 49.55 639.838 71.75C639.838 93.95 655.738 111.5 676.888 111.5ZM679.888 92C669.238 92 660.988 83.45 660.988 71.75C660.988 60.2 669.238 51.5 679.888 51.5C690.388 51.5 698.638 60.2 698.638 71.75C698.638 83.45 690.388 92 679.888 92ZM738.363 101C738.363 106.85 743.013 111.5 748.863 111.5C754.713 111.5 759.363 106.85 759.363 101V63.05C759.363 55.25 763.713 51.5 769.113 51.5C774.513 51.5 778.863 55.25 778.863 63.05V101C778.863 106.85 783.513 111.5 789.363 111.5C795.213 111.5 799.863 106.85 799.863 101V63.05C799.863 55.25 804.213 51.5 809.613 51.5C815.013 51.5 819.363 55.25 819.363 63.05V101C819.363 106.85 824.013 111.5 829.863 111.5C835.713 111.5 840.363 106.85 840.363 101V63.35C840.363 44.45 827.463 32 811.113 32C802.413 32 794.613 34.85 789.363 43.25C783.963 34.85 776.313 32 767.613 32C751.263 32 738.363 44.45 738.363 63.35V101ZM859.084 101C859.084 106.85 863.734 111.5 869.584 111.5C875.434 111.5 880.084 106.85 880.084 101V42.5C880.084 36.65 875.434 32 869.584 32C863.734 32 859.084 36.65 859.084 42.5V101ZM869.584 24.5C876.184 24.5 881.584 19.1 881.584 12.5C881.584 5.9 876.184 0.499997 869.584 0.499997C862.984 0.499997 857.584 5.9 857.584 12.5C857.584 19.1 862.984 24.5 869.584 24.5ZM895.799 94.1C895.799 103.1 908.399 111.5 922.049 111.5C936.749 111.5 948.299 100.25 948.299 86.75C948.299 70.85 937.499 66.5 928.499 63.65C922.199 61.55 916.799 60.2 916.799 56C916.799 53.15 919.199 50.75 922.049 50.75C926.699 50.75 929.399 54.8 933.299 56.75C934.649 57.35 935.999 57.8 937.799 57.8C943.199 57.8 947.549 53.45 947.549 48.05C947.549 39.35 934.799 32 922.049 32C907.649 32 896.549 42.8 896.549 55.85C896.549 72.05 907.199 76.1 915.899 79.1C922.049 81.2 927.299 82.7 927.299 87.5C927.299 90.35 924.899 92.75 922.049 92.75C917.249 92.75 914.999 89.15 911.849 86.6C910.199 85.25 908.249 84.35 905.549 84.35C900.149 84.35 895.799 88.7 895.799 94.1ZM1001.05 111.5C1013.95 111.5 1024.3 105.95 1029.4 99.8C1031.35 97.55 1032.4 95 1032.4 92.9C1032.4 87.05 1027.9 82.85 1022.05 82.85C1018 82.85 1015.9 85.1 1012.9 87.65C1010.35 89.75 1006.6 92 1001.05 92C990.252 92 982.152 83 982.152 71.75C982.152 60.5 990.402 51.5 1001.05 51.5C1002.7 51.5 1005.25 51.8 1006.3 52.25L993.402 67.1C991.752 68.9 991.152 71.15 991.152 73.4C991.152 78.95 995.502 83 1001.2 83C1004.05 83 1006.3 81.95 1008.4 79.55L1027.75 56.45C1029.85 53.9 1030.6 51.65 1030.6 49.1C1030.6 46.1 1029.25 43.1 1026.85 41C1022.65 37.1 1013.35 32 1001.05 32C977.802 32 961.002 49.55 961.002 71.75C961.002 94.1 977.952 111.5 1001.05 111.5Z" fill="url(#paint0_linear_33_70)"/>
<path d="M1058.62 111.5C1065.67 111.5 1071.37 105.8 1071.37 98.75C1071.37 91.7 1065.67 86 1058.62 86C1051.57 86 1045.87 91.7 1045.87 98.75C1045.87 105.8 1051.57 111.5 1058.62 111.5Z" fill="url(#paint1_linear_33_70)"/>
<defs>
<linearGradient id="paint0_linear_33_70" x1="536.5" y1="-31" x2="536.5" y2="160" gradientUnits="userSpaceOnUse">
<stop stop-color="#F9F9FB"/>
<stop offset="1" stop-color="#F9F9FB" stop-opacity="0.53"/>
</linearGradient>
<linearGradient id="paint1_linear_33_70" x1="536.5" y1="-31" x2="536.5" y2="160" gradientUnits="userSpaceOnUse">
<stop stop-color="#00C9FF"/>
<stop offset="1" stop-color="#07C8FC" stop-opacity="0.2"/>
</linearGradient>
</defs>
</svg>
